<?xml version="1.0" encoding="UTF-8"?>
<svg id="Layer_1" data-name="Layer 1" xmlns="http://www.w3.org/2000/svg" viewBox="0 0 77.27 67.72">
  <defs>
    <style>
      .cls-1 {
        fill: #231f20;
      }
    </style>
  </defs>
  <path class="cls-1" d="M76.87,63.22L41.23,1.5c-.54-.93-1.53-1.5-2.6-1.5s-2.06,.57-2.6,1.5L.4,63.22c-.54,.93-.54,2.07,0,3,.54,.93,1.53,1.5,2.6,1.5H74.27c1.07,0,2.06-.57,2.6-1.5,.54-.93,.54-2.07,0-3Zm-68.67-1.5L38.64,9l30.44,52.72H8.2Z"/>
  <path class="cls-1" d="M35.64,25.62v14.62c0,1.66,1.34,3,3,3s3-1.34,3-3v-14.62c0-1.66-1.34-3-3-3s-3,1.34-3,3Z"/>
  <path class="cls-1" d="M38.64,47.77c-1.66,0-3,1.34-3,3v3.4c0,1.66,1.34,3,3,3s3-1.34,3-3v-3.4c0-1.66-1.34-3-3-3Z"/>
</svg>