<?xml version="1.0" encoding="UTF-8"?>
<svg id="Layer_1" data-name="Layer 1" xmlns="http://www.w3.org/2000/svg" viewBox="0 0 77.27 67.72">
  <defs>
    <style>
      .cls-1 {
        fill: #231f20;
      }
    </style>
  </defs>
  <path class="cls-1" d="M36.32,52.08s.06,.06,.09,.09c.09,.1,.18,.18,.28,.27,.06,.05,.12,.11,.18,.15,.11,.08,.23,.15,.35,.21,.06,.03,.12,.07,.19,.1,.14,.06,.28,.11,.43,.15,.05,.02,.11,.04,.16,.05,.21,.04,.42,.07,.64,.07s.43-.03,.64-.07c.06-.01,.11-.03,.16-.05,.15-.04,.29-.09,.43-.15,.07-.03,.12-.07,.19-.1,.12-.06,.24-.13,.35-.21,.06-.05,.12-.1,.18-.15,.1-.08,.19-.17,.28-.27,.03-.03,.06-.05,.09-.09l19.14-23.18c1.05-1.28,.87-3.17-.4-4.22-1.28-1.05-3.17-.87-4.22,.4l-13.83,16.75V5.03c0-1.66-1.34-3-3-3s-3,1.34-3,3V41.82l-13.83-16.75c-1.06-1.28-2.94-1.46-4.22-.4-1.28,1.06-1.46,2.95-.4,4.22l19.14,23.18Z"/>
  <path class="cls-1" d="M66.55,59.7H10.72c-1.66,0-3,1.34-3,3s1.34,3,3,3h55.83c1.66,0,3-1.34,3-3s-1.34-3-3-3Z"/>
</svg>